<svg width="1358" height="592" viewBox="0 0 1358 592" fill="none" xmlns="http://www.w3.org/2000/svg">
<g clip-path="url(#clip0)">
<rect width="1358" height="592" fill="white"/>
<path d="M987 387.5C995.525 387.5 1002.42 380.525 1002.42 372L1002.5 294.5C1002.5 285.975 995.525 279 987 279H863C854.475 279 847.5 285.975 847.5 294.5V372C847.5 380.525 854.475 387.5 863 387.5H832V403H1018V387.5H987ZM863 294.5H987V372H863V294.5Z" fill="#C5CFD6"/>
<path d="M562.333 185.333L524 147L562.333 108.667L550.667 97L500.667 147L550.667 197L562.333 185.333ZM605.667 185.333L644 147L605.667 108.667L617.333 97L667.333 147L617.333 197L605.667 185.333Z" fill="#C5CFD6"/>
<path d="M732.706 290.045C727.691 264.601 705.345 245.5 678.5 245.5C657.186 245.5 638.675 257.595 629.456 275.295C607.257 277.655 590 296.461 590 319.25C590 343.661 609.839 363.5 634.25 363.5H730.125C750.48 363.5 767 346.98 767 326.625C767 307.155 751.881 291.373 732.706 290.045ZM730.125 348.75H634.25C617.951 348.75 604.75 335.549 604.75 319.25C604.75 302.951 617.951 289.75 634.25 289.75H639.486C644.354 272.714 659.915 260.25 678.5 260.25C700.92 260.25 719.062 278.393 719.062 300.812V304.5H730.125C742.367 304.5 752.25 314.382 752.25 326.625C752.25 338.868 742.367 348.75 730.125 348.75Z" fill="#C5CFD6"/>
<path d="M749.667 181.833V215.167L808 247L866.333 215.167V181.833L808 213.667L749.667 181.833ZM808 97L716.333 147L808 197L883 156.083V213.667H899.667V147L808 97Z" fill="#C5CFD6"/>
<path d="M425 255H415V325C415 330.5 419.5 335 425 335H495V325H425V255ZM505 235H445C439.5 235 435 239.5 435 245V305C435 310.5 439.5 315 445 315H505C510.5 315 515 310.5 515 305V245C515 239.5 510.5 235 505 235ZM500 280H450V270H500V280ZM480 300H450V290H480V300ZM500 260H450V250H500V260Z" fill="#C5CFD6"/>
<path fill-rule="evenodd" clip-rule="evenodd" d="M1203.06 244.244C1196.59 248.147 1190.23 250.033 1187.24 249.263C1179.75 247.333 1179.06 219.935 1184.86 209.134C1190.65 198.333 1220.44 193.625 1221.94 215.025C1222.46 222.453 1219.35 229.081 1214.74 234.49L1223 273H1199L1203.06 244.244Z" fill="#D7904E"/>
<path fill-rule="evenodd" clip-rule="evenodd" d="M1194.34 197.37C1197.62 196.37 1202.38 196.031 1204.38 196.26C1203.24 193.531 1202.79 190.49 1203.16 187.529C1203.51 184.652 1204.8 182.202 1205.99 179.635C1206.54 178.452 1207.16 177.275 1208.08 176.37C1209.03 175.448 1210.22 174.84 1211.47 174.549C1212.76 174.252 1214.1 174.277 1215.38 174.547C1215.95 174.666 1216.46 174.925 1217.01 175.07C1217.58 175.218 1217.86 174.861 1218.27 174.502C1219.27 173.638 1220.73 173.211 1221.99 173.059C1223.41 172.887 1224.88 173.101 1226.23 173.566C1227.54 174.019 1228.81 174.755 1229.76 175.827C1230.18 176.304 1230.56 176.847 1230.81 177.446C1230.91 177.692 1230.93 177.838 1231.18 177.928C1231.4 178.012 1231.67 178.014 1231.9 178.094C1234.17 178.861 1236.11 180.612 1237.16 182.86C1237.78 184.171 1238.07 186.48 1237.99 189.068C1237.91 191.656 1235.57 198.408 1233.39 200.871C1231.44 203.07 1228.57 204.52 1225.8 205.155C1227.64 207.255 1228.86 209.878 1229.76 212.547C1230.75 215.445 1231.35 218.457 1231.58 221.525C1231.79 224.44 1231.81 227.524 1231.13 230.377C1230.49 233.045 1229.12 235.234 1226.84 236.622C1225.79 237.258 1224.67 237.736 1223.54 238.173C1222.42 238.603 1221.3 239.022 1220.14 239.263C1217.93 239.72 1215.38 239.642 1213.68 237.882C1213.06 237.248 1212.39 236.451 1211.94 235.676C1211.78 235.397 1211.68 235.215 1211.88 234.943C1212.11 234.616 1212.49 234.366 1212.79 234.111C1214.51 232.656 1215.57 230.713 1215.84 228.405C1216.11 226.063 1215.48 223.039 1213.2 222.017C1210.39 220.755 1207.3 222.204 1204.8 223.554C1203.74 219.806 1201.56 216.431 1198.14 214.712C1194.35 212.811 1190.02 212.588 1186.13 210.956C1185.12 210.531 1184.08 210.048 1183.34 209.182C1183.03 208.82 1182.66 208.35 1182.54 207.871C1182.37 207.242 1182.78 206.715 1183.09 206.224C1184.76 203.624 1191.06 198.37 1194.34 197.37Z" fill="#57331F"/>
<path fill-rule="evenodd" clip-rule="evenodd" d="M1230 353L1193.37 479.227L1176.14 574H1158.85L1176.11 353H1230Z" fill="#F8A866"/>
<path fill-rule="evenodd" clip-rule="evenodd" d="M1246.46 353C1243.91 418.574 1244.91 454.34 1245.49 460.298C1246.06 466.256 1249.31 506.156 1271.44 576H1253.45C1224.14 508.997 1213.91 469.096 1210.55 460.298C1207.19 451.5 1197.26 415.734 1182.77 353H1246.46Z" fill="#D7904E"/>
<path fill-rule="evenodd" clip-rule="evenodd" d="M1230.79 353C1221.26 396.435 1204.78 465.768 1181.35 561H1156.05C1154.19 463.254 1162.13 398.92 1175.9 353H1230.79Z" fill="#8991DC"/>
<path fill-rule="evenodd" clip-rule="evenodd" d="M1246.59 353C1244.09 418.574 1250.57 483.177 1270.67 562.021H1243.68C1214.32 496.018 1193.28 431.734 1178.89 353H1246.59Z" fill="#5C63AB"/>
<path fill-rule="evenodd" clip-rule="evenodd" d="M1274 589L1273.09 574.249C1273.05 573.609 1272.42 573.171 1271.8 573.304C1263.13 575.146 1251.17 571 1251.17 571C1239.14 579.522 1221.8 583.433 1215.69 584.604C1214.51 584.831 1213.75 586.023 1214.08 587.18L1215.45 592H1251.17H1272.02L1274 589Z" fill="#57331F"/>
<path fill-rule="evenodd" clip-rule="evenodd" d="M1180 589L1179.09 574.249C1179.05 573.609 1178.42 573.171 1177.8 573.304C1169.13 575.146 1157.17 571 1157.17 571C1145.14 579.522 1127.8 583.433 1121.69 584.604C1120.51 584.831 1119.75 586.023 1120.08 587.18L1121.45 592H1157.17H1178.02L1180 589Z" fill="#57331F"/>
<path fill-rule="evenodd" clip-rule="evenodd" d="M1144.65 274.69L1179.36 293.7L1166.54 307.458L1141.32 284.365C1128.04 280.704 1121.96 278.025 1123.1 276.329C1124.05 274.9 1125.59 274.949 1127.02 274.995C1128.12 275.031 1129.16 275.064 1129.78 274.394C1131.21 272.863 1128.48 267.51 1125.69 262.541C1122.89 257.573 1125.88 258.005 1127.59 258.72C1133.19 262.512 1138.88 267.835 1144.65 274.69ZM1109.75 301.364L1125 309.74L1124.13 325.04C1124.13 325.04 1114.26 317.913 1105.76 315.544C1094.93 312.524 1090.55 310.218 1085.25 303.473C1082.42 299.864 1080.02 292.61 1082.71 290.248C1083.75 289.341 1087.6 291.482 1091.53 293.667C1094.53 295.332 1097.57 297.022 1099.44 297.408C1101.97 297.927 1101.67 294.657 1101.44 292.044C1101.27 290.17 1101.13 288.633 1102.08 289.077C1106.54 289.154 1109.75 301.364 1109.75 301.364Z" fill="#F8A866"/>
<path fill-rule="evenodd" clip-rule="evenodd" d="M1196.27 289.465C1184.11 289.337 1167.9 286.769 1150.6 275.789L1143.8 290.938C1155.74 302.78 1172.51 312.509 1187.18 312.097C1198.74 311.773 1204.65 297.789 1196.27 289.465Z" fill="#2026A2"/>
<path fill-rule="evenodd" clip-rule="evenodd" d="M1229.06 393.259C1240.61 391.752 1251.23 390.367 1257.53 391.606C1264.59 368.673 1258.73 354.234 1253.31 340.905C1250.05 332.871 1246.95 325.241 1246.94 316.397C1246.93 290.642 1226.25 251 1223.2 251H1222.33H1198.22H1195.46C1194.22 266.937 1188.92 284.193 1183.59 301.56C1182.35 305.615 1181.1 309.677 1179.91 313.729C1159.74 318.307 1114.96 302.373 1114.96 302.373C1114.96 302.373 1103.66 325.759 1104.51 335.717C1130.58 349.331 1152.91 355.401 1171.32 355.802C1170.73 366.721 1172.06 377.112 1176.53 386.606C1182.51 399.327 1207.42 396.079 1229.06 393.259Z" fill="#1F28CF"/>
<path fill-rule="evenodd" clip-rule="evenodd" d="M194.136 214.954C201.103 219.154 207.949 221.183 211.162 220.354C219.219 218.277 219.96 188.8 213.726 177.18C207.491 165.559 175.44 160.494 173.825 183.518C173.264 191.509 176.62 198.641 181.577 204.46L172.688 245.892H198.509L194.136 214.954Z" fill="#B28B67"/>
<path fill-rule="evenodd" clip-rule="evenodd" d="M195.427 186.061C197.661 182.735 199.805 180.199 202.594 178.726C213.946 178.905 215.275 176.87 215.275 170.011C213.441 168.699 206.972 166.49 199.727 165.868C196.031 164.811 191.653 165.01 187.436 166.774C182.229 168.251 177.821 171.433 175.873 177.389C168.828 189.547 174.175 202.203 181.382 206.527C183.3 204.254 184.974 202.052 186.467 199.943C185.268 198.771 184.523 197.135 184.523 195.326C184.523 191.76 187.413 188.87 190.978 188.87C191.24 188.87 191.499 188.886 191.753 188.916C191.913 193.374 192.573 208.454 194.307 213.692C196.352 219.868 208.282 221.384 212.443 221.384C216.037 221.384 215.915 217.981 215.827 215.542C215.814 215.191 215.802 214.86 215.802 214.561C215.802 213.938 214.992 213.94 214.076 213.942C212.887 213.944 211.521 213.947 211.521 212.583C211.521 211.096 213.576 209.955 215.415 208.934C216.562 208.298 217.625 207.708 218.053 207.109C219.401 205.221 219.856 202.675 217.821 202.675C216.709 202.675 215.183 203.316 213.347 204.088C210.575 205.252 207.098 206.713 203.271 206.713C196.949 206.713 195.446 186.316 195.427 186.061Z" fill="#191847"/>
<path fill-rule="evenodd" clip-rule="evenodd" d="M155.509 336.744L195.935 469.165L215.519 581.781H230.874L210.181 336.744H155.509Z" fill="#997659"/>
<path fill-rule="evenodd" clip-rule="evenodd" d="M141.047 336.744C143.793 409.451 140.561 446.954 139.947 453.559C139.332 460.165 130.917 502.997 110.995 583.999L127.356 578.368C158.841 504.078 169.57 465.467 173.182 455.712C176.793 445.957 186.384 406.301 201.954 336.744H141.047Z" fill="#B28B67"/>
<path fill-rule="evenodd" clip-rule="evenodd" d="M113.951 577.019C112.88 576.543 111.604 577.019 111.202 578.12C110.415 580.279 109.315 583.632 109.315 585.502C109.315 588.414 110.283 594 110.283 594C113.654 594 170.875 594 170.875 594C170.875 594 173.237 586.176 168.148 585.552C163.059 584.929 159.694 584.426 159.694 584.426L131.462 571.816C130.947 571.586 130.344 571.827 130.13 572.348L128.29 576.819C128.29 576.819 123.579 579.021 120.634 579.021C118.796 579.021 115.882 577.878 113.951 577.019Z" fill="#E4E4E4"/>
<path fill-rule="evenodd" clip-rule="evenodd" d="M214.934 577.019C213.863 576.543 212.587 577.019 212.186 578.12C211.399 580.279 210.298 583.632 210.298 585.502C210.298 588.414 211.266 594 211.266 594C214.637 594 271.858 594 271.858 594C271.858 594 274.22 586.176 269.131 585.552C264.042 584.929 260.677 584.426 260.677 584.426L232.445 571.816C231.93 571.586 231.327 571.827 231.113 572.348L229.273 576.819C229.273 576.819 224.562 579.021 221.617 579.021C219.779 579.021 216.865 577.878 214.934 577.019Z" fill="#E4E4E4"/>
<path fill-rule="evenodd" clip-rule="evenodd" d="M150.138 336.744L167.326 404.211H219.827L211.999 336.744H150.138Z" fill="#69A1AC"/>
<path fill-rule="evenodd" clip-rule="evenodd" d="M140.469 336.744C131.986 362.223 137.246 404.211 137.246 404.211H190.821L205.553 336.744H140.469Z" fill="#89C5CC"/>
<path fill-rule="evenodd" clip-rule="evenodd" d="M277.647 362.221L251.597 328.589L239.139 344.494L267.928 367.375C274.058 380.855 277.928 386.852 279.539 385.364C280.897 384.109 280.584 382.481 280.296 380.982C280.071 379.814 279.862 378.723 280.469 377.948C281.855 376.179 288.001 378.167 293.753 380.304C299.504 382.44 298.54 379.337 297.492 377.641C292.518 372.334 285.903 367.194 277.647 362.221ZM93.7493 379.92C97.7601 374.036 117.053 313.907 117.053 313.907L139.305 317.123C139.305 317.123 109.345 380.674 107.131 384.509C104.253 389.491 106.801 397.674 108.529 403.223C108.797 404.082 109.044 404.877 109.249 405.588C105.623 406.633 104.243 404.56 102.787 402.375C101.144 399.907 99.405 397.295 94.226 398.87C92.225 399.478 90.3027 400.26 88.4246 401.023C81.9372 403.661 75.9776 406.084 69.1304 400.413C68.0449 399.514 67.13 396.575 70.5791 394.864C79.1723 390.6 91.7886 382.797 93.7493 379.92Z" fill="#B28B67"/>
<path fill-rule="evenodd" clip-rule="evenodd" d="M193.431 229.542L202.866 229.259C213.168 271.041 235.81 310.871 270.79 348.75L235.834 380.772C202.784 329.192 185.098 278.283 193.431 229.542Z" fill="#191847"/>
<path fill-rule="evenodd" clip-rule="evenodd" d="M137.028 339.468L219.065 350.997C219.065 350.997 200.281 277.796 207.078 229.43L182.849 222.272C159.012 250.762 148.117 288.432 137.028 339.468Z" fill="#DDE3E9"/>
<path fill-rule="evenodd" clip-rule="evenodd" d="M94.8064 369.323C117.978 269.546 182.305 222.196 182.305 222.196L182.322 222.216C182.326 222.21 182.331 222.205 182.335 222.2L183.95 222.427C186.835 222.934 192.732 224.027 192.732 224.027L196.314 241.925C192.878 273.255 189.724 369.221 189.724 369.221L136.026 361.674C135.508 366.022 135.092 370.446 134.792 374.942L94.8064 369.323Z" fill="#2F3676"/>
<path fill-rule="evenodd" clip-rule="evenodd" d="M135.976 362.095C138.2 343.157 142.369 325.668 147.422 310.022C146.211 329.261 146.051 352.593 150.936 364.197L135.976 362.095Z" fill="black" fill-opacity="0.1"/>
<path fill-rule="evenodd" clip-rule="evenodd" d="M152.491 330.796L180.738 322.217L179.009 334.523L152.491 330.796Z" fill="white" fill-opacity="0.2"/>
</g>
<defs>
<clipPath id="clip0">
<rect width="1358" height="592" fill="white"/>
</clipPath>
</defs>
</svg>
