<svg width="1358" height="592" viewBox="0 0 1358 592" fill="none" xmlns="http://www.w3.org/2000/svg">
<rect width="1358" height="592" fill="white"/>
<path fill-rule="evenodd" clip-rule="evenodd" d="M566.177 171.65C573.462 176.041 580.62 178.162 583.98 177.296C592.406 175.125 593.18 144.302 586.661 132.151C580.142 119.999 546.628 114.703 544.939 138.779C544.353 147.134 547.861 154.592 553.045 160.676L543.75 204H570.75L566.177 171.65Z" fill="#B28B67"/>
<path fill-rule="evenodd" clip-rule="evenodd" d="M567.527 141.438C569.863 137.96 572.105 135.308 575.021 133.767C586.891 133.955 588.281 131.827 588.281 124.655C586.364 123.283 579.599 120.973 572.024 120.323C568.159 119.217 563.581 119.425 559.171 121.27C553.727 122.815 549.117 126.141 547.081 132.369C539.714 145.083 545.305 158.317 552.84 162.838C554.846 160.461 556.597 158.158 558.158 155.954C556.904 154.728 556.125 153.018 556.125 151.125C556.125 147.397 559.147 144.375 562.875 144.375C563.149 144.375 563.419 144.391 563.685 144.423C563.853 149.084 564.543 164.853 566.356 170.33C568.494 176.788 580.969 178.374 585.32 178.374C589.078 178.374 588.95 174.815 588.858 172.265C588.845 171.897 588.833 171.551 588.833 171.239C588.833 170.588 587.985 170.589 587.028 170.591C585.784 170.594 584.356 170.597 584.356 169.17C584.356 167.615 586.504 166.423 588.427 165.355C589.627 164.689 590.739 164.072 591.186 163.447C592.596 161.473 593.071 158.81 590.943 158.81C589.78 158.81 588.185 159.48 586.265 160.287C583.367 161.505 579.73 163.033 575.729 163.033C569.119 163.033 567.547 141.705 567.527 141.438Z" fill="#191847"/>
<path fill-rule="evenodd" clip-rule="evenodd" d="M525.787 299L568.059 437.467L588.536 555.223H604.592L582.954 299H525.787Z" fill="#997659"/>
<path fill-rule="evenodd" clip-rule="evenodd" d="M510.664 299C513.535 375.026 510.156 414.241 509.514 421.148C508.871 428.055 500.072 472.842 479.24 557.542L496.349 551.655C529.271 473.973 540.49 433.6 544.266 423.399C548.042 413.199 558.071 371.732 574.352 299H510.664Z" fill="#B28B67"/>
<path fill-rule="evenodd" clip-rule="evenodd" d="M482.239 550.203C481.169 549.725 479.894 550.202 479.491 551.303C478.666 553.556 477.483 557.132 477.483 559.115C477.483 562.159 478.496 568 478.496 568C482.021 568 541.854 568 541.854 568C541.854 568 544.324 559.819 539.003 559.167C533.682 558.515 530.162 557.989 530.162 557.989L500.599 544.784C500.084 544.554 499.481 544.795 499.266 545.316L497.325 550.035C497.325 550.035 492.399 552.338 489.32 552.338C487.368 552.338 484.257 551.106 482.239 550.203Z" fill="#E4E4E4"/>
<path fill-rule="evenodd" clip-rule="evenodd" d="M587.832 550.203C586.762 549.725 585.487 550.202 585.084 551.303C584.26 553.556 583.077 557.132 583.077 559.115C583.077 562.159 584.089 568 584.089 568C587.614 568 647.447 568 647.447 568C647.447 568 649.917 559.819 644.596 559.167C639.275 558.515 635.755 557.989 635.755 557.989L606.192 544.784C605.677 544.554 605.074 544.795 604.86 545.316L602.918 550.035C602.918 550.035 597.993 552.338 594.913 552.338C592.961 552.338 589.85 551.106 587.832 550.203Z" fill="#E4E4E4"/>
<path fill-rule="evenodd" clip-rule="evenodd" d="M520.17 299L538.143 369.547H593.041L584.855 299H520.17Z" fill="#69A1AC"/>
<path fill-rule="evenodd" clip-rule="evenodd" d="M510.06 299C501.189 325.642 506.69 369.547 506.69 369.547H562.711L578.115 299H510.06Z" fill="#89C5CC"/>
<path fill-rule="evenodd" clip-rule="evenodd" d="M653.501 325.64L626.261 290.473L613.235 307.104L643.338 331.03C649.748 345.125 653.795 351.395 655.479 349.839C656.899 348.528 656.572 346.825 656.27 345.257C656.036 344.036 655.817 342.896 656.451 342.085C657.901 340.235 664.327 342.314 670.341 344.548C676.356 346.782 675.347 343.537 674.252 341.764C669.051 336.215 662.134 330.84 653.501 325.64ZM461.208 344.147C465.401 337.994 485.575 275.12 485.575 275.12L508.843 278.483C508.843 278.483 477.516 344.936 475.2 348.945C472.191 354.154 474.855 362.712 476.662 368.514C476.942 369.412 477.201 370.243 477.415 370.987C473.623 372.079 472.18 369.912 470.658 367.627C468.94 365.046 467.121 362.315 461.706 363.962C459.614 364.598 457.604 365.415 455.64 366.214C448.856 368.971 442.624 371.505 435.465 365.575C434.33 364.635 433.373 361.562 436.98 359.773C445.965 355.314 459.157 347.155 461.208 344.147Z" fill="#B28B67"/>
<path fill-rule="evenodd" clip-rule="evenodd" d="M565.44 186.904L575.305 186.608C586.078 230.297 609.753 271.946 646.331 311.554L609.779 345.038C575.22 291.104 556.727 237.87 565.44 186.904Z" fill="#191847"/>
<path fill-rule="evenodd" clip-rule="evenodd" d="M506.462 301.848L592.244 313.904C592.244 313.904 572.602 237.36 579.71 186.787L554.375 179.302C529.45 209.092 518.058 248.482 506.462 301.848Z" fill="#DDE3E9"/>
<path fill-rule="evenodd" clip-rule="evenodd" d="M462.313 333.066C486.542 228.734 553.806 179.222 553.806 179.222L553.824 179.243C553.828 179.237 553.833 179.232 553.837 179.226L555.526 179.464C558.543 179.994 564.709 181.137 564.709 181.137L568.454 199.853C564.862 232.613 561.564 332.96 561.564 332.96L505.414 325.068C504.873 329.614 504.438 334.241 504.124 338.942L462.313 333.066Z" fill="#2F3676"/>
<path fill-rule="evenodd" clip-rule="evenodd" d="M505.362 325.508C507.688 305.706 512.047 287.418 517.331 271.057C516.064 291.175 515.897 315.573 521.005 327.706L505.362 325.508Z" fill="black" fill-opacity="0.1"/>
<path fill-rule="evenodd" clip-rule="evenodd" d="M522.631 292.78L552.167 283.809L550.359 296.677L522.631 292.78Z" fill="white" fill-opacity="0.2"/>
<path fill-rule="evenodd" clip-rule="evenodd" d="M791.942 179.748C785.696 185.322 779.177 188.633 775.793 188.348C767.306 187.632 761.191 157.311 765.348 144.199C769.505 131.088 800.835 120.168 806.655 143.667C808.675 151.824 806.597 159.786 802.668 166.678L819.161 207.904L793.177 212.485L791.942 179.748Z" fill="#F1B585"/>
<path fill-rule="evenodd" clip-rule="evenodd" d="M805.609 171.68C806.244 156.21 813.744 144.418 811.151 138.011C808.559 131.603 802.128 131.064 802.128 131.064C802.128 131.064 796.622 118.426 779.648 123.451C762.674 128.476 753.404 137.725 760.835 153.17C765.032 152.43 769.824 149.979 777.301 151.413C780.859 152.096 783.46 158.452 783.46 158.452L786.626 157.894C786.626 157.894 789.852 149.237 794.698 150.527C799.545 151.816 798.516 160.268 798.516 160.268L802.241 172.274L805.609 171.68Z" fill="#191847"/>
<path fill-rule="evenodd" clip-rule="evenodd" d="M832.213 304L789.941 442.467L769.464 560.223H753.408L775.046 304H832.213Z" fill="#F1B585"/>
<path fill-rule="evenodd" clip-rule="evenodd" d="M847.336 304C844.465 380.026 847.844 419.241 848.486 426.148C849.129 433.055 857.928 477.842 878.76 562.542L861.651 556.655C828.729 478.973 817.51 438.6 813.734 428.399C809.958 418.199 799.929 376.732 783.648 304H847.336Z" fill="#F4C294"/>
<path fill-rule="evenodd" clip-rule="evenodd" d="M875.761 555.203C876.831 554.725 878.106 555.202 878.509 556.303C879.334 558.556 880.517 562.132 880.517 564.115C880.517 567.159 879.504 573 879.504 573C875.979 573 816.146 573 816.146 573C816.146 573 813.676 564.819 818.997 564.167C824.318 563.515 827.838 562.989 827.838 562.989L857.401 549.784C857.916 549.554 858.519 549.795 858.734 550.316L860.675 555.035C860.675 555.035 865.601 557.338 868.68 557.338C870.632 557.338 873.743 556.106 875.761 555.203Z" fill="#E4E4E4"/>
<path fill-rule="evenodd" clip-rule="evenodd" d="M770.168 555.203C771.238 554.725 772.513 555.202 772.916 556.303C773.74 558.556 774.923 562.132 774.923 564.115C774.923 567.159 773.911 573 773.911 573C770.386 573 710.553 573 710.553 573C710.553 573 708.083 564.819 713.404 564.167C718.725 563.515 722.245 562.989 722.245 562.989L751.808 549.784C752.323 549.554 752.926 549.795 753.14 550.316L755.082 555.035C755.082 555.035 760.007 557.338 763.087 557.338C765.039 557.338 768.15 556.106 770.168 555.203Z" fill="#E4E4E4"/>
<path fill-rule="evenodd" clip-rule="evenodd" d="M837.83 304L819.857 374.547H764.959L773.145 304H837.83Z" fill="#69A1AC"/>
<path fill-rule="evenodd" clip-rule="evenodd" d="M847.94 304C856.811 330.642 851.31 374.547 851.31 374.547H795.289L779.885 304H847.94Z" fill="#89C5CC"/>
<path fill-rule="evenodd" clip-rule="evenodd" d="M709.301 303.275L741.177 272.232L751.757 290.512L718.613 310.024C710.301 323.093 705.42 328.74 703.969 326.965C702.746 325.469 703.307 323.829 703.824 322.317C704.227 321.14 704.602 320.042 704.087 319.151C702.91 317.117 696.256 318.284 689.99 319.66C683.723 321.037 685.174 317.964 686.506 316.36C692.429 311.587 700.028 307.225 709.301 303.275ZM774.402 346.069L790.55 304.586L769.579 302.036L764.548 340.159C755.755 352.928 752.46 359.632 754.661 360.269C756.517 360.805 757.809 359.646 758.999 358.578C759.926 357.745 760.792 356.969 761.813 357.093C764.147 357.377 765.671 363.95 766.85 370.25C768.029 376.551 770.294 374.011 771.251 372.157C773.334 364.839 774.385 356.143 774.402 346.069Z" fill="#B28B67"/>
<path fill-rule="evenodd" clip-rule="evenodd" d="M780.573 194.444C766.283 233.183 742.18 264.727 705.645 299.132L723.436 314.263C766.371 291.093 788.853 277.595 795.81 241.914C797.556 232.959 795.789 205.442 795.542 190.869L780.573 194.444Z" fill="#3D434D"/>
<path fill-rule="evenodd" clip-rule="evenodd" d="M851.538 306.848L765.756 318.904C765.756 318.904 782.432 226.073 778.416 192.916C778.279 191.789 780.081 189.516 781.037 189.646C791.529 191.073 802.336 184.483 802.336 184.483C827.261 214.274 839.942 253.482 851.538 306.848Z" fill="#C6E1F7"/>
<path fill-rule="evenodd" clip-rule="evenodd" d="M819.28 339.285L865.019 332.857C865.434 283.103 836.846 218.217 814.356 186.623C813.697 185.697 812.493 184.156 810.436 183.704C810.457 183.636 810.479 183.568 810.5 183.5L809.759 183.6C809.316 183.56 808.838 183.569 808.324 183.642L795.033 185.509C795.028 185.536 795.023 185.563 795.018 185.59L791.986 186C765.507 227.987 745.996 270.59 757.252 305.917C758.138 308.698 762.235 308.183 769.371 307.286C774.426 306.651 781.008 305.824 789.053 305.842C793.387 328.254 802.908 341.586 819.28 339.285Z" fill="#70747E"/>
<path d="M654.25 185.25C654.25 188.375 656.75 191.5 660.5 191.5H685.5C689.25 191.5 691.75 188.375 691.75 185.25V179H654.25V185.25ZM673 66.5C648.625 66.5 629.25 85.875 629.25 110.25C629.25 125.25 636.75 138.375 648 145.875V160.25C648 163.375 650.5 166.5 654.25 166.5H691.75C695.5 166.5 698 163.375 698 160.25V145.875C709.25 137.75 716.75 124.625 716.75 110.25C716.75 85.875 697.375 66.5 673 66.5Z" fill="#C5CFD6"/>
</svg>
