<svg width="1358" height="592" viewBox="0 0 1358 592" fill="none" xmlns="http://www.w3.org/2000/svg">
<g clip-path="url(#clip0)">
<rect width="1358" height="592" fill="white"/>
<path fill-rule="evenodd" clip-rule="evenodd" d="M675.326 292.748C682.014 295.304 688.266 296.006 690.93 294.8C697.61 291.775 693.77 266.236 686.589 257.167C679.409 248.098 650.811 248.636 652.91 268.743C653.639 275.721 657.637 281.359 662.826 285.619L661.409 322.717L683.828 318.764L675.326 292.748Z" fill="#B28B67"/>
<path fill-rule="evenodd" clip-rule="evenodd" d="M671.774 247.868C668.735 247.908 660.721 248.98 659.253 249.238C658.316 249.404 657.337 249.796 656.631 249.038C656.053 248.418 656.011 247.204 655.732 246.416C655.408 245.499 655.019 244.607 654.629 243.717C653.518 241.185 652.1 238.84 650.32 236.718C646.981 232.736 642.621 229.924 637.535 228.738C631.917 227.428 625.916 227.96 620.376 229.403C614.448 230.947 609.353 233.879 604.002 236.736C598.904 239.459 593.36 241.154 587.549 241.288C581.694 241.423 576.845 239.113 571.522 237.047C566.074 234.933 560.103 233.974 554.363 235.448C549.004 236.825 544.39 239.936 540.422 243.705C536.711 247.232 533.833 251.194 532.707 256.256C531.495 261.7 532.479 267.269 536.733 271.142C542.9 276.755 554.275 287.366 562 285.832C566.468 284.945 568.971 272.781 572.945 270.555C578.244 267.586 582.535 263.38 587.339 259.735C589.594 258.025 591.973 256.527 594.526 255.3C597.004 254.109 599.512 253.321 602.148 254.469C604.937 255.684 607.461 256.915 610.5 257.447C613.415 257.958 616.416 258.002 619.331 257.465C625.003 256.42 630.293 253.674 635.602 251.524C639.931 249.771 644.576 247.965 649.325 248.079C651.307 248.127 654.242 248.429 655.282 250.283C644.017 254.429 641.968 269.529 647.098 279.443C649.867 284.794 661.675 289.539 665.287 285.832C667.576 283.483 665.548 281.288 664.23 279.835C661.706 277.052 660.322 273.15 663.587 270.327C666.403 267.892 670.5 271.772 670.562 271.756C671.415 271.536 678.15 266.018 682.219 258.981C687.353 258.384 687.537 254.92 685.844 252.412C684.151 249.904 675.974 247.814 671.774 247.868Z" fill="#191847"/>
<path fill-rule="evenodd" clip-rule="evenodd" d="M657.759 399.355C663.481 421.976 783.672 470.353 784.637 472.135C785.281 473.323 764.999 557.869 764.999 557.869L775.113 559.874C775.113 559.874 812.797 467.477 808.545 459.089C802.459 447.08 709.803 390.43 709.803 390.43L657.759 399.355Z" fill="#B28B67"/>
<path fill-rule="evenodd" clip-rule="evenodd" d="M765.405 545.606L781.852 548.501C807.966 506.024 815.396 473.466 810.344 458.435C805.292 443.404 711.916 389.864 711.916 389.864L656.66 399.607C667.904 452.348 775.218 474.004 776.96 476.029C778.701 478.054 769.394 502.534 765.405 545.606Z" fill="#2F3676"/>
<path fill-rule="evenodd" clip-rule="evenodd" d="M764.062 556.156C763.087 555.51 761.75 555.757 761.167 556.772C760.163 558.522 758.804 561.096 758.53 562.646C758.085 565.165 758.071 570.146 758.071 570.146C760.996 570.661 810.65 579.398 810.65 579.398C810.65 579.398 813.896 572.989 809.575 571.673C805.255 570.356 802.411 569.407 802.411 569.407L779.941 554.254C779.475 553.939 778.84 554.071 778.538 554.547L776.324 558.031C776.324 558.031 771.899 559.217 769.343 558.767C767.82 558.499 765.604 557.179 764.062 556.156Z" fill="#E4E4E4"/>
<path fill-rule="evenodd" clip-rule="evenodd" d="M670.211 397.16L642.367 521.352L612.198 627.514L623.384 625.542L708.13 390.474L670.211 397.16Z" fill="#997659"/>
<path fill-rule="evenodd" clip-rule="evenodd" d="M612.897 606.442L638.575 606.715C652.817 575.102 712.844 445.192 712.163 389.763L656.827 399.52C634.244 443.658 626.158 574.521 612.897 606.442Z" fill="#5C63AB"/>
<path fill-rule="evenodd" clip-rule="evenodd" d="M779.151 338.579L748.034 359.36L761.242 371.277L783.086 347.428C795.295 342.882 800.796 339.856 799.588 338.351C798.569 337.082 797.12 337.255 795.786 337.415C794.747 337.54 793.776 337.656 793.133 337.076C791.663 335.75 793.784 330.479 796.01 325.563C798.236 320.648 795.452 321.302 793.899 322.117C788.937 326.154 784.021 331.641 779.151 338.579ZM632.123 387.919L612.378 387.492C605.461 423.918 601.047 443.988 599.136 447.704C597.735 450.429 587.572 458.604 580.537 463.253C577.713 465.119 578.826 467.591 579.869 468.26C586.446 472.484 591.382 469.727 596.755 466.725C598.311 465.856 599.903 464.967 601.583 464.221C605.929 462.289 607.725 464.385 609.422 466.367C610.925 468.121 612.351 469.785 615.4 468.483C615.146 467.884 614.844 467.215 614.519 466.493C612.418 461.827 609.32 454.946 611.294 450.282C612.308 447.888 619.251 427.101 632.123 387.919Z" fill="#B28B67"/>
<path fill-rule="evenodd" clip-rule="evenodd" d="M670.703 303.521L678.509 300.719C699.046 314.657 713.415 354.311 726.055 357.666C738.006 360.839 752.793 353.122 770.229 343.149L778.179 354.898C764.495 376.203 731.192 398.036 715.028 391.774C689.185 381.763 674.896 332.251 670.703 303.521Z" fill="#DC26B4"/>
<path fill-rule="evenodd" clip-rule="evenodd" d="M653.472 411.003C653.472 411.003 701.888 402.466 724.7 398.443C727.955 397.869 726.512 393.272 725.623 390.98C715.36 364.532 688.954 338.728 682.075 299.717L660.961 300.114C648.792 330.477 648.857 365.206 653.472 411.003Z" fill="#DDE3E9"/>
<path fill-rule="evenodd" clip-rule="evenodd" d="M659.87 300.306L659.636 300.347C618.566 336.908 598.488 385.896 599.401 447.312L614.847 447.608C622.703 434.327 631.579 413.294 641.475 384.508C639.806 401.092 639.41 417.868 641.097 433.368L705.214 422.063C712.088 388.466 667.77 298.913 667.77 298.913L663.344 299.693L659.87 300.306Z" fill="#FF33D2"/>
<path d="M987 387.5C995.525 387.5 1002.42 380.525 1002.42 372L1002.5 294.5C1002.5 285.975 995.525 279 987 279H863C854.475 279 847.5 285.975 847.5 294.5V372C847.5 380.525 854.475 387.5 863 387.5H832V403H1018V387.5H987ZM863 294.5H987V372H863V294.5Z" fill="#C5CFD6"/>
<path d="M521.333 199.333L483 161L521.333 122.667L509.667 111L459.667 161L509.667 211L521.333 199.333ZM564.667 199.333L603 161L564.667 122.667L576.333 111L626.333 161L576.333 211L564.667 199.333V199.333Z" fill="#C5CFD6"/>
<path d="M493.706 382.045C488.691 356.601 466.345 337.5 439.5 337.5C418.186 337.5 399.675 349.595 390.456 367.295C368.257 369.655 351 388.461 351 411.25C351 435.661 370.839 455.5 395.25 455.5H491.125C511.48 455.5 528 438.98 528 418.625C528 399.155 512.881 383.372 493.706 382.045ZM491.125 440.75H395.25C378.951 440.75 365.75 427.549 365.75 411.25C365.75 394.951 378.951 381.75 395.25 381.75H400.486C405.354 364.714 420.915 352.25 439.5 352.25C461.92 352.25 480.062 370.393 480.062 392.812V396.5H491.125C503.367 396.5 513.25 406.383 513.25 418.625C513.25 430.867 503.367 440.75 491.125 440.75Z" fill="#C5CFD6"/>
<path d="M749.667 181.833V215.167L808 247L866.333 215.167V181.833L808 213.667L749.667 181.833ZM808 97L716.333 147L808 197L883 156.083V213.667H899.667V147L808 97Z" fill="#C5CFD6"/>
<path d="M360 233H350V303C350 308.5 354.5 313 360 313H430V303H360V233ZM440 213H380C374.5 213 370 217.5 370 223V283C370 288.5 374.5 293 380 293H440C445.5 293 450 288.5 450 283V223C450 217.5 445.5 213 440 213ZM435 258H385V248H435V258ZM415 278H385V268H415V278ZM435 238H385V228H435V238Z" fill="#C5CFD6"/>
</g>
<defs>
<clipPath id="clip0">
<rect width="1358" height="592" fill="white"/>
</clipPath>
</defs>
</svg>
