<svg width="1358" height="592" viewBox="0 0 1358 592" fill="none" xmlns="http://www.w3.org/2000/svg">
<g clip-path="url(#clip0)">
<rect width="1358" height="592" fill="white"/>
<path fill-rule="evenodd" clip-rule="evenodd" d="M454.181 245.584C461.455 249.971 468.602 252.091 471.957 251.226C480.37 249.056 481.144 218.257 474.634 206.115C468.125 193.974 434.66 188.681 432.974 212.738C432.388 221.087 435.892 228.539 441.068 234.619L431.787 277.909H458.747L454.181 245.584Z" fill="#B28B67"/>
<path fill-rule="evenodd" clip-rule="evenodd" d="M477.18 211.567C476.913 209.993 476.26 208.246 475.733 206.757C475.054 204.837 474.027 203.107 472.896 201.475C470.767 198.405 468.214 195.632 465.394 193.33C460.244 189.126 453.688 186.701 447.241 187.489C443.986 187.886 440.826 189.129 438.136 191.197C435.707 193.065 433.369 195.816 430.223 196.014C426.799 196.228 423.661 193.205 420.915 191.337C417.819 189.231 414.526 187.697 410.908 187.101C404.846 186.102 399.152 188.152 394.975 193.128C390.529 198.424 387.298 206.19 390.217 213.207C390.76 214.512 391.458 215.611 392.46 216.523C393.378 217.358 394.782 218.248 395.154 219.583C395.55 221.002 394.368 222.834 393.91 224.114C393.253 225.949 392.714 227.876 392.905 229.87C393.22 233.146 395.277 236.273 397.45 238.426C399.66 240.617 402.38 241.873 405.286 242.452C407.226 242.839 409.209 243.052 411.181 242.907C412.16 242.835 413.024 242.563 413.972 242.346C414.895 242.136 415.41 242.381 416.193 242.887C419.828 245.239 423.736 246.149 427.934 245.799C431.476 245.504 435.559 244.645 438.449 242.216C441.659 239.518 441.595 235.798 440.84 231.824C441.64 232.221 443.853 232.466 442.53 230.885C442.006 230.258 441.016 230.003 440.344 229.635C439.561 229.206 438.766 228.651 438.158 227.952C435.704 225.126 438.183 219.376 441.268 218.428C445.852 217.021 446.878 223.508 450.15 225.186C452.032 226.15 454 224.832 455.409 223.485C457.298 221.681 458.584 219.292 459.695 216.86C460.611 214.857 461.462 212.826 462.395 210.834C462.831 209.903 464.339 207.273 463.581 206.221C466.864 205.565 470.521 206.931 473.349 208.721C474.517 209.461 475.408 210.277 476.032 211.584C476.165 211.864 476.456 212.696 476.821 212.73C477.501 212.794 477.247 211.963 477.18 211.567Z" fill="#191847"/>
<path fill-rule="evenodd" clip-rule="evenodd" d="M363.537 419.548C354.7 419.548 347.537 426.711 347.537 435.548V542.939C347.537 551.775 354.7 558.939 363.537 558.939H496.667C505.503 558.939 512.667 551.775 512.667 542.939V435.548C512.667 426.711 505.503 419.548 496.667 419.548H363.537ZM382.99 451.023C380.781 451.023 378.99 452.814 378.99 455.023V523.464C378.99 525.673 380.781 527.464 382.99 527.464H477.213C479.422 527.464 481.213 525.673 481.213 523.464V455.023C481.213 452.814 479.422 451.023 477.213 451.023H382.99Z" fill="#C5CFD6"/>
<path fill-rule="evenodd" clip-rule="evenodd" d="M624.055 553.319C601.908 526.254 586.922 506.19 579.099 493.126C565.703 470.757 554.739 450.853 551.279 443.25C543.028 425.118 570.273 416.628 576.439 425.085C585.772 437.885 605.703 478.163 636.233 545.919L624.055 553.319Z" fill="#B28B67"/>
<path fill-rule="evenodd" clip-rule="evenodd" d="M578.671 545.45L537.453 441.622C528.638 422.695 571.21 410.254 577.689 419.062C592.398 439.06 627.358 517.947 631.74 523.905L578.671 545.45Z" fill="#2F3676"/>
<path fill-rule="evenodd" clip-rule="evenodd" d="M468.894 524.628C476.923 512.908 506.127 473.477 522.034 457.163C526.605 452.474 531.065 447.975 535.284 443.781C547.822 431.318 572.792 452.267 560.276 463.619C529.107 491.891 483.63 530.057 479.83 533.46C474.505 538.23 463.848 531.993 468.894 524.628Z" fill="#B28B67"/>
<path fill-rule="evenodd" clip-rule="evenodd" d="M473.938 519.586C473.251 518.637 471.909 518.414 471.011 519.164C469.172 520.7 466.363 523.201 465.374 524.916C463.855 527.55 461.817 533.108 461.817 533.108C464.869 534.872 516.686 564.809 516.686 564.809C516.686 564.809 522.907 558.969 518.625 555.743C514.342 552.516 511.557 550.301 511.557 550.301L492.543 524.086C492.212 523.63 491.57 523.537 491.124 523.881L487.088 526.991C487.088 526.991 481.673 526.518 479.006 524.977C477.315 524 475.235 521.376 473.938 519.586Z" fill="#E4E4E4"/>
<path fill-rule="evenodd" clip-rule="evenodd" d="M617.397 547.909C616.328 547.431 615.054 547.909 614.651 549.009C613.826 551.258 612.643 554.83 612.643 556.81C612.643 559.851 613.656 565.684 613.656 565.684C617.181 565.684 677.014 565.684 677.014 565.684C677.014 565.684 679.483 557.514 674.162 556.862C668.842 556.211 665.322 555.686 665.322 555.686L635.758 542.497C635.244 542.267 634.641 542.508 634.426 543.029L632.485 547.742C632.485 547.742 627.559 550.042 624.48 550.042C622.527 550.042 619.415 548.811 617.397 547.909Z" fill="#E4E4E4"/>
<path fill-rule="evenodd" clip-rule="evenodd" d="M522.622 446.808C522.622 446.808 471.235 438.431 453.782 435.351C420.618 429.499 410.947 411.64 416.665 372.675L477.769 372.675C489.899 376.18 579.131 416.032 579.131 416.032C589.835 421.349 587.841 437.025 585.885 442.19C585.765 442.506 531.755 535.01 531.755 535.01L481.768 503.144L522.716 450.563C522.716 450.563 524.338 447.294 522.622 446.808Z" fill="#5C63AB"/>
<path fill-rule="evenodd" clip-rule="evenodd" d="M359.217 421.693C362.509 415.01 378.956 329 378.956 329L403.554 329.092C403.554 329.092 375.452 420.203 373.719 424.501C371.468 430.083 375.292 438.195 377.885 443.695C378.286 444.545 378.658 445.334 378.973 446.041C375.375 447.652 373.647 445.704 371.825 443.652C369.767 441.333 367.589 438.879 362.463 441.266C360.483 442.188 358.609 443.278 356.778 444.343C350.454 448.022 344.644 451.401 336.74 446.521C335.487 445.747 334.114 442.834 337.432 440.558C345.697 434.887 357.608 424.961 359.217 421.693ZM566.386 388.18L534.564 357.115L523.995 375.416L557.085 394.939C565.382 408.018 570.255 413.669 571.704 411.893C572.926 410.394 572.366 408.753 571.85 407.24C571.448 406.062 571.073 404.962 571.588 404.071C572.764 402.034 579.408 403.201 585.665 404.577C591.923 405.953 590.475 402.878 589.145 401.272C583.231 396.496 575.645 392.132 566.386 388.18Z" fill="#B28B67"/>
<path fill-rule="evenodd" clip-rule="evenodd" d="M453.911 259.172L463.624 257.505C478.926 311.633 557.547 348.529 562.373 368.764C564.143 376.185 558.806 379.936 561.563 382.196L548.937 391.445C546.799 388.949 542.237 393.515 532.708 390.321C523.18 387.127 453.911 323.265 453.911 259.172Z" fill="#DC26B4"/>
<path fill-rule="evenodd" clip-rule="evenodd" d="M436.142 247.837C433.939 247.683 432.027 249.344 431.873 251.548L431.379 258.628C413.098 272.706 367.79 314.773 355.983 393.083C354.743 401.309 356.986 405.715 358.778 409.236C360.004 411.644 361.019 413.638 360.563 416.157L377.087 420.721C377.087 418.861 379.17 417.447 381.857 415.621C385.763 412.967 390.947 409.446 392.864 402.425C394.681 395.771 397.342 387.46 400.521 378.214C400.821 390.459 403.141 401.72 408.197 411.048C420.809 434.318 493.692 408.798 501.307 385.058C505.37 372.391 499.604 361.755 491.979 347.69C482.3 329.835 469.624 306.453 470.25 266.368L471.094 254.293C471.248 252.089 469.586 250.177 467.383 250.023L436.142 247.837Z" fill="#FF33D2"/>
<path fill-rule="evenodd" clip-rule="evenodd" d="M902.819 245.584C895.545 249.971 888.398 252.091 885.043 251.226C876.63 249.056 875.856 218.257 882.366 206.115C888.875 193.974 922.34 188.681 924.026 212.738C924.612 221.087 921.108 228.539 915.932 234.619L925.213 277.909H898.253L902.819 245.584Z" fill="#B28B67"/>
<path fill-rule="evenodd" clip-rule="evenodd" d="M893.015 192.891C896.699 191.767 902.046 191.386 904.296 191.644C903.016 188.576 902.509 185.157 902.923 181.829C903.325 178.595 904.769 175.841 906.105 172.956C906.72 171.625 907.418 170.303 908.458 169.285C909.518 168.249 910.859 167.565 912.266 167.238C913.705 166.904 915.21 166.932 916.652 167.235C917.289 167.369 917.862 167.661 918.487 167.823C919.128 167.989 919.438 167.588 919.903 167.185C921.024 166.214 922.666 165.734 924.083 165.563C925.674 165.37 927.324 165.61 928.84 166.133C930.316 166.643 931.735 167.47 932.802 168.674C933.277 169.211 933.708 169.821 933.989 170.495C934.104 170.771 934.123 170.935 934.399 171.037C934.654 171.13 934.952 171.133 935.215 171.222C937.76 172.085 939.937 174.053 941.122 176.58C941.813 178.054 942.14 180.65 942.051 183.559C941.961 186.468 939.336 194.058 936.881 196.827C934.69 199.298 931.468 200.929 928.36 201.643C930.423 204.003 931.797 206.952 932.812 209.952C933.916 213.21 934.598 216.595 934.851 220.045C935.09 223.322 935.112 226.788 934.344 229.995C933.626 232.994 932.09 235.455 929.526 237.016C928.352 237.731 927.088 238.268 925.817 238.759C924.564 239.243 923.308 239.713 921.996 239.985C919.513 240.498 916.651 240.41 914.738 238.432C914.049 237.719 913.291 236.823 912.788 235.952C912.607 235.639 912.498 235.434 912.718 235.128C912.981 234.761 913.407 234.48 913.745 234.193C915.673 232.557 916.867 230.374 917.167 227.778C917.473 225.145 916.766 221.747 914.208 220.598C911.05 219.179 907.572 220.807 904.766 222.325C903.573 218.112 901.123 214.319 897.284 212.386C893.035 210.248 888.16 209.998 883.795 208.164C882.657 207.686 881.498 207.143 880.661 206.169C880.311 205.762 879.9 205.234 879.76 204.696C879.577 203.989 880.033 203.396 880.385 202.844C882.251 199.921 889.331 194.016 893.015 192.891Z" fill="#191847"/>
<path fill-rule="evenodd" clip-rule="evenodd" d="M927.46 567.932C879.689 567.932 840.963 530.94 840.963 485.309C840.963 439.678 879.689 402.686 927.46 402.686C975.231 402.686 1013.96 439.678 1013.96 485.309C1013.96 530.94 975.231 567.932 927.46 567.932Z" fill="#C5CFD6"/>
<path fill-rule="evenodd" clip-rule="evenodd" d="M792.985 480.902C788.807 495.548 778.398 523.306 764.005 555.184L750.328 551.191C762.293 477.837 772.251 429.272 777.955 414.491C781.724 404.726 810.236 405.87 806.956 425.52C805.581 433.76 800.139 455.826 792.985 480.902ZM849.201 428.947C871.505 433.571 917.75 449.918 930.956 455.142C939.255 458.424 933.905 469.558 926.825 468.584C925.625 468.419 921.383 467.944 915.054 467.235C894.724 464.959 852.858 460.272 821.104 455.699C804.385 453.291 813.379 421.951 830.739 425.268C836.579 426.383 842.791 427.618 849.201 428.947Z" fill="#B28B67"/>
<path fill-rule="evenodd" clip-rule="evenodd" d="M777.081 406.214C779.361 398.767 883.019 372.335 883.019 372.335H891.513V380.256L820.084 416.644C820.179 417.818 820.121 419.059 819.89 420.368C820.406 447.343 808.869 467.495 797.447 487.447C789.977 500.494 782.556 513.456 778.587 528.185L752.344 524.267C753.109 522.31 754.318 513.489 755.97 501.428C760.138 471.016 767.127 420.007 776.933 406.512C776.968 406.465 777.002 406.418 777.038 406.371C777.051 406.319 777.065 406.266 777.081 406.214Z" fill="#DC26B4"/>
<path fill-rule="evenodd" clip-rule="evenodd" d="M885.578 438.254C892.114 436.945 898.133 435.776 903.283 434.872C936.548 429.034 946.249 411.214 940.514 372.335H879.222C869.21 375.213 817.178 397.049 790.181 408.662C772.313 416.349 777.946 444.059 788.064 451.27C788.119 451.713 788.301 452.013 788.626 452.148C826.988 468.059 859.703 466.872 880.71 466.109C889.509 465.79 896.254 465.545 900.5 466.662L907.153 445.66L885.578 438.254Z" fill="#FF33D2"/>
<path fill-rule="evenodd" clip-rule="evenodd" d="M923.957 453.783C923.996 452.613 924.983 451.678 926.147 451.797C928.529 452.041 932.256 452.543 934.035 453.411C936.766 454.744 941.562 458.212 941.562 458.212C940.017 461.383 913.787 515.198 913.787 515.198C913.787 515.198 905.366 513.838 907.114 508.766C908.861 503.695 909.933 500.299 909.933 500.299L911.047 467.926C911.066 467.363 911.546 466.927 912.108 466.962L917.192 467.282C917.192 467.282 921.417 463.86 922.767 461.09C923.623 459.334 923.882 455.993 923.957 453.783Z" fill="#E4E4E4"/>
<path fill-rule="evenodd" clip-rule="evenodd" d="M767.686 547.909C768.755 547.431 770.029 547.909 770.432 549.009C771.257 551.258 772.44 554.83 772.44 556.81C772.44 559.851 771.428 565.684 771.428 565.684C767.903 565.684 708.07 565.684 708.07 565.684C708.07 565.684 705.6 557.514 710.921 556.862C716.242 556.211 719.761 555.686 719.761 555.686L749.325 542.497C749.84 542.267 750.442 542.508 750.657 543.029L752.598 547.742C752.598 547.742 757.524 550.042 760.604 550.042C762.556 550.042 765.668 548.811 767.686 547.909Z" fill="#E4E4E4"/>
<path fill-rule="evenodd" clip-rule="evenodd" d="M796.39 383.165L832.222 356.834L840.143 376.429L804.66 391.153C794.625 402.95 789.013 407.868 787.825 405.906C786.824 404.253 787.607 402.705 788.328 401.279C788.889 400.168 789.414 399.132 789.028 398.177C788.146 395.997 781.405 396.226 775.017 396.718C768.63 397.209 770.491 394.365 772.031 392.96C778.552 389.055 786.671 385.79 796.39 383.165ZM984.303 429.562C981.011 422.878 969.801 357.743 969.801 357.743L946.326 357.836C946.326 357.836 968.068 428.071 969.801 432.369C972.052 437.951 968.228 446.063 965.635 451.563C965.234 452.413 964.862 453.202 964.547 453.909C968.145 455.52 969.873 453.572 971.695 451.52C973.753 449.201 975.93 446.747 981.056 449.134C983.037 450.056 984.911 451.146 986.742 452.211C993.066 455.89 998.876 459.269 1006.78 454.389C1008.03 453.615 1009.41 450.702 1006.09 448.426C997.823 442.755 985.912 432.829 984.303 429.562Z" fill="#B28B67"/>
<path fill-rule="evenodd" clip-rule="evenodd" d="M903.089 259.171L893.375 257.504C857.335 288.66 842.532 348.513 798.356 380.22L808.989 393.409C885.627 383.913 904.622 310.907 903.089 259.171Z" fill="#5C63AB"/>
<path fill-rule="evenodd" clip-rule="evenodd" d="M945.433 381.328C945.433 381.328 887.011 381.328 859.485 381.328C855.558 381.328 856.298 375.653 856.866 372.789C863.418 339.739 888.995 304.113 888.995 257.068L913.787 253.178C934.292 286.18 941.384 326.813 945.433 381.328Z" fill="#DDE3E9"/>
<path fill-rule="evenodd" clip-rule="evenodd" d="M955.097 404.934C958.96 414.218 962.748 422.319 966.317 428.541H984.75C986.733 364.374 962.457 315.001 942.14 285.23C946.651 284.907 950.723 283.018 953.296 278.371C962.358 262.009 959.085 253.001 949.402 250.04C944.077 248.411 939.069 249.523 933.074 250.853C928.168 251.942 922.602 253.177 915.66 253.178C915.658 253.178 915.656 253.178 915.654 253.178C914.981 253.178 914.369 253.223 913.813 253.309L905.587 253.779C905.587 253.779 872.186 367.057 887.163 404.934H955.097Z" fill="#8991DC"/>
<path fill-rule="evenodd" clip-rule="evenodd" d="M955.097 404.934C950.029 392.753 944.832 378.536 939.831 363.853C937.969 380.022 934.869 396.263 929.707 404.934H955.097Z" fill="black" fill-opacity="0.1"/>
</g>
<defs>
<clipPath id="clip0">
<rect width="1358" height="592" fill="white"/>
</clipPath>
</defs>
</svg>
