<svg width="1358" height="592" viewBox="0 0 1358 592" fill="none" xmlns="http://www.w3.org/2000/svg">
<g clip-path="url(#clip0)">
<rect width="1358" height="592" fill="white"/>
<path fill-rule="evenodd" clip-rule="evenodd" d="M1027.26 113.52C1033.24 117.126 1039.12 118.869 1041.88 118.158C1048.8 116.374 1049.44 91.0602 1044.08 81.0807C1038.73 71.1012 1011.2 66.7515 1009.82 86.5241C1009.34 93.3865 1012.22 99.5107 1016.47 104.508L1008.84 140.088H1031.01L1027.26 113.52Z" fill="#E7A86D"/>
<path fill-rule="evenodd" clip-rule="evenodd" d="M1031.44 69.5794C1028.52 69.1002 1020.65 68.7707 1019.2 68.7709C1018.27 68.7709 1017.27 68.9828 1016.72 68.1312C1016.27 67.4339 1016.43 66.2546 1016.3 65.4454C1016.14 64.5054 1015.92 63.5775 1015.7 62.652C1015.06 60.0183 1014.1 57.5126 1012.75 55.1602C1010.22 50.7466 1006.51 47.2895 1001.83 45.2778C996.667 43.0566 990.82 42.548 985.262 42.9985C979.314 43.4805 973.93 45.4439 968.315 47.2916C962.964 49.0523 957.359 49.7454 951.762 48.8855C946.123 48.0193 941.862 44.963 937.105 42.0621C932.236 39.0923 926.671 37.15 920.915 37.5965C915.542 38.0134 910.589 40.2321 906.146 43.1959C901.989 45.9689 898.559 49.3052 896.622 54.0008C894.539 59.0519 894.54 64.5962 897.966 69.0602C902.932 75.5307 912.151 77.204 919.821 77.0376C924.257 76.9417 928.614 76.1319 932.802 74.6588C938.388 72.6941 943.215 69.3642 948.44 66.6624C950.893 65.3946 953.428 64.3533 956.085 63.6033C958.663 62.8751 961.202 62.5411 963.537 64.0987C966.006 65.7464 968.219 67.365 971.044 68.3965C973.755 69.3861 976.625 69.9396 979.513 69.9172C985.131 69.8738 990.669 68.1234 996.126 66.9508C1000.58 65.9949 1005.34 65.0421 1009.87 65.9611C1011.77 66.3446 1014.53 67.1363 1015.21 69.1036C1003.71 71.1891 999.188 85.4201 1002.43 95.867C1004.18 101.506 1014.71 108.097 1018.8 105.133C1021.39 103.255 1019.82 100.789 1018.8 99.1619C1016.85 96.0451 1016.18 92.0415 1019.79 89.8715C1022.9 88 1026.18 92.4443 1026.24 92.4394C1027.1 92.372 1034.49 88.1904 1039.58 82.0884C1044.61 82.3863 1045.37 79.0726 1044.17 76.3626C1042.97 73.6526 1035.48 70.2421 1031.44 69.5794Z" fill="#784931"/>
<path fill-rule="evenodd" clip-rule="evenodd" d="M994.088 218.109L1028.8 331.828L1045.62 428.538H1058.81L1041.04 218.109H994.088Z" fill="#D29664"/>
<path fill-rule="evenodd" clip-rule="evenodd" d="M981.668 218.109C984.026 280.547 981.251 312.753 980.723 318.426C980.196 324.099 972.969 360.881 955.86 430.442L969.911 425.607C996.95 361.809 1006.16 328.652 1009.26 320.275C1012.37 311.897 1020.6 277.842 1033.97 218.109H981.668Z" fill="#E7A86D"/>
<path fill-rule="evenodd" clip-rule="evenodd" d="M958.68 424.573C957.606 424.105 956.33 424.581 955.934 425.684C955.27 427.537 954.418 430.209 954.418 431.734C954.418 434.234 955.249 439.031 955.249 439.031C958.144 439.031 1007.28 439.031 1007.28 439.031C1007.28 439.031 1009.31 432.313 1004.94 431.777C1000.57 431.241 997.681 430.81 997.681 430.81L973.57 420.04C973.055 419.81 972.452 420.051 972.237 420.572L970.713 424.277C970.713 424.277 966.668 426.168 964.138 426.168C962.647 426.168 960.33 425.292 958.68 424.573Z" fill="#E4E4E4"/>
<path fill-rule="evenodd" clip-rule="evenodd" d="M1045.4 424.573C1044.33 424.105 1043.05 424.581 1042.65 425.684C1041.99 427.537 1041.14 430.209 1041.14 431.734C1041.14 434.234 1041.97 439.031 1041.97 439.031C1044.86 439.031 1094 439.031 1094 439.031C1094 439.031 1096.03 432.313 1091.66 431.777C1087.29 431.241 1084.4 430.81 1084.4 430.81L1060.29 420.04C1059.78 419.81 1059.17 420.051 1058.96 420.572L1057.43 424.277C1057.43 424.277 1053.39 426.168 1050.86 426.168C1049.37 426.168 1047.05 425.292 1045.4 424.573Z" fill="#E4E4E4"/>
<path fill-rule="evenodd" clip-rule="evenodd" d="M989.475 218.109L1004.24 276.048H1049.32L1042.6 218.109H989.475Z" fill="#69A1AC"/>
<path fill-rule="evenodd" clip-rule="evenodd" d="M981.172 218.109C973.887 239.99 978.404 276.048 978.404 276.048H1024.41L1037.06 218.109H981.172Z" fill="#89C5CC"/>
<path fill-rule="evenodd" clip-rule="evenodd" d="M930.97 247.251C934.414 242.198 957.631 174.2 957.631 174.2L977.655 177.091C977.655 177.091 944.363 247.899 942.461 251.192C939.99 255.47 942.179 262.498 943.662 267.263C943.892 268 944.105 268.683 944.281 269.294C941.166 270.191 939.981 268.411 938.732 266.534C937.32 264.415 935.827 262.172 931.379 263.524C929.661 264.047 928.01 264.718 926.397 265.374C920.826 267.638 915.708 269.719 909.828 264.849C908.896 264.077 908.11 261.554 911.072 260.084C918.452 256.422 929.286 249.721 930.97 247.251ZM1103.53 243.737L1081.16 214.855L1070.46 228.514L1095.19 248.163C1100.45 259.739 1103.77 264.889 1105.16 263.611C1106.32 262.534 1106.05 261.136 1105.81 259.848C1105.61 258.845 1105.43 257.908 1105.96 257.243C1107.15 255.723 1112.42 257.431 1117.36 259.266C1122.3 261.1 1121.47 258.435 1120.57 256.979C1116.3 252.422 1110.62 248.008 1103.53 243.737Z" fill="#E7A86D"/>
<path fill-rule="evenodd" clip-rule="evenodd" d="M1026.65 126.048L1034.76 125.805C1041.04 171.534 1100.86 210.511 1102.48 227.503C1103.08 233.734 1098.3 236.171 1100.29 238.323L1088.95 244.392C1087.49 242.12 1083.25 245.307 1075.86 241.621C1068.46 237.936 1019.34 178.121 1026.65 126.048Z" fill="#DC26B4"/>
<path fill-rule="evenodd" clip-rule="evenodd" d="M1014.17 114.952C1012.01 114.493 1009.89 115.872 1009.43 118.033L1008.36 123.026C991.867 132.371 950.161 161.363 931.603 223.636C929.654 230.177 930.977 234.014 932.035 237.079C932.758 239.176 933.357 240.912 932.699 242.906L945.636 248.506C945.849 246.995 947.706 246.084 950.103 244.909C953.588 243.2 958.213 240.932 960.576 235.448C962.815 230.249 965.931 223.801 969.576 216.653C968.422 226.636 969.027 236.051 972.079 244.208C979.694 264.558 1041.97 252.167 1050.88 233.751C1055.64 223.924 1052.16 214.623 1047.55 202.322C1041.71 186.708 1034.05 166.26 1039.14 133.765L1041.06 124.753C1041.52 122.592 1040.14 120.468 1037.98 120.009L1014.17 114.952Z" fill="#FF33D2"/>
<rect width="191" height="51" transform="matrix(1 0 0 -1 584 590)" fill="#C5CFD6"/>
<rect width="174" height="95" transform="matrix(1 0 0 -1 775 590)" fill="#C5CFD6"/>
<rect width="204" height="153" transform="matrix(1 0 0 -1 949 590)" fill="#C5CFD6"/>
<rect width="210" height="207" transform="matrix(1 0 0 -1 1153 590)" fill="#C5CFD6"/>
<path fill-rule="evenodd" clip-rule="evenodd" d="M546.833 256.853C553.457 259.385 559.649 260.08 562.288 258.885C568.904 255.889 565.101 230.594 557.989 221.612C550.877 212.63 522.552 213.163 524.631 233.077C525.353 239.989 529.312 245.573 534.452 249.792L533.049 286.536L555.254 282.621L546.833 256.853Z" fill="#B28B67"/>
<path fill-rule="evenodd" clip-rule="evenodd" d="M543.315 212.402C540.305 212.441 532.367 213.503 530.914 213.759C529.985 213.923 529.016 214.311 528.317 213.561C527.744 212.947 527.702 211.745 527.426 210.963C527.105 210.056 526.72 209.172 526.334 208.291C525.233 205.783 523.829 203.461 522.066 201.358C518.759 197.415 514.441 194.63 509.402 193.455C503.839 192.157 497.894 192.684 492.408 194.113C486.537 195.643 481.49 198.547 476.191 201.376C471.141 204.073 465.65 205.752 459.894 205.885C454.095 206.019 449.293 203.731 444.021 201.685C438.624 199.59 432.711 198.64 427.025 200.101C421.717 201.465 417.147 204.546 413.218 208.279C409.541 211.772 406.692 215.696 405.576 220.71C404.376 226.102 405.35 231.617 409.564 235.453C415.672 241.013 426.938 251.523 434.589 250.003C439.015 249.124 441.494 237.077 445.43 234.872C450.678 231.931 454.928 227.766 459.687 224.156C461.92 222.462 464.276 220.978 466.805 219.763C469.259 218.583 471.743 217.803 474.354 218.94C477.116 220.143 479.616 221.362 482.626 221.89C485.513 222.396 488.485 222.439 491.373 221.907C496.991 220.872 502.23 218.153 507.488 216.023C511.776 214.286 516.376 212.498 521.08 212.611C523.043 212.658 525.951 212.958 526.98 214.794C515.823 218.901 513.794 233.856 518.875 243.676C521.617 248.976 533.312 253.675 536.89 250.003C539.157 247.677 537.148 245.502 535.843 244.063C533.343 241.307 531.972 237.442 535.206 234.646C537.995 232.235 542.053 236.078 542.114 236.062C542.959 235.844 549.63 230.378 553.661 223.409C558.745 222.818 558.927 219.387 557.25 216.903C555.573 214.418 547.475 212.348 543.315 212.402Z" fill="#191847"/>
<path fill-rule="evenodd" clip-rule="evenodd" d="M529.434 362.442C535.101 384.847 654.144 432.762 655.1 434.527C655.738 435.703 635.649 519.442 635.649 519.442L645.667 521.428C645.667 521.428 682.991 429.913 678.78 421.606C672.752 409.712 580.981 353.602 580.981 353.602L529.434 362.442Z" fill="#B28B67"/>
<path fill-rule="evenodd" clip-rule="evenodd" d="M636.052 507.297L652.341 510.164C678.206 468.093 685.566 435.845 680.562 420.958C675.558 406.071 583.074 353.042 583.074 353.042L528.346 362.692C539.482 414.929 645.771 436.379 647.496 438.384C649.221 440.39 640.003 464.636 636.052 507.297Z" fill="#2F3676"/>
<path fill-rule="evenodd" clip-rule="evenodd" d="M634.739 517.757C633.764 517.111 632.426 517.358 631.844 518.373C630.85 520.106 629.513 522.643 629.242 524.173C628.801 526.668 628.788 531.601 628.788 531.601C631.685 532.111 680.865 540.765 680.865 540.765C680.865 540.765 684.079 534.418 679.8 533.113C675.521 531.809 672.704 530.87 672.704 530.87L650.457 515.866C649.99 515.551 649.356 515.684 649.054 516.16L646.866 519.602C646.866 519.602 642.484 520.777 639.952 520.331C638.449 520.067 636.265 518.768 634.739 517.757Z" fill="#E4E4E4"/>
<path fill-rule="evenodd" clip-rule="evenodd" d="M541.766 360.268L514.189 483.273L484.308 588.422L495.387 586.468L579.324 353.646L541.766 360.268Z" fill="#997659"/>
<path fill-rule="evenodd" clip-rule="evenodd" d="M485.366 582.617C484.228 582.343 483.056 583.032 482.856 584.185C482.516 586.153 482.127 588.993 482.397 590.524C482.837 593.018 484.513 597.658 484.513 597.658C487.411 597.147 536.593 588.475 536.593 588.475C536.593 588.475 537.441 581.413 532.973 581.65C528.505 581.887 525.536 581.966 525.536 581.966L499.491 575.47C498.945 575.334 498.393 575.675 498.272 576.225L497.395 580.207C497.395 580.207 493.679 582.808 491.147 583.254C489.644 583.52 487.146 583.046 485.366 582.617Z" fill="#E4E4E4"/>
<path fill-rule="evenodd" clip-rule="evenodd" d="M485 567.551L510.433 567.821C524.539 536.51 583.993 407.84 583.318 352.941L528.51 362.605C506.143 406.322 498.134 535.934 485 567.551Z" fill="#5C63AB"/>
<path fill-rule="evenodd" clip-rule="evenodd" d="M649.667 302.247L618.847 322.829L631.928 334.633L653.563 311.011C665.656 306.509 671.104 303.512 669.908 302.021C668.899 300.764 667.464 300.936 666.142 301.094C665.113 301.218 664.152 301.333 663.515 300.758C662.059 299.444 664.159 294.224 666.364 289.355C668.569 284.487 665.812 285.135 664.274 285.942C659.359 289.94 654.49 295.375 649.667 302.247ZM504.043 351.115L484.486 350.693C477.635 386.77 473.263 406.649 471.371 410.33C469.983 413.029 459.917 421.126 452.949 425.73C450.152 427.579 451.254 430.026 452.287 430.69C458.802 434.873 463.691 432.142 469.013 429.169C470.554 428.309 472.131 427.428 473.794 426.688C478.099 424.775 479.878 426.852 481.559 428.814C483.047 430.552 484.459 432.2 487.48 430.91C487.227 430.317 486.929 429.654 486.607 428.939C484.526 424.318 481.457 417.502 483.413 412.883C484.416 410.512 491.293 389.923 504.043 351.115Z" fill="#B28B67"/>
<path fill-rule="evenodd" clip-rule="evenodd" d="M542.254 267.523L549.986 264.748C570.326 278.554 584.559 317.828 597.078 321.152C608.914 324.294 623.56 316.651 640.83 306.773L648.703 318.41C635.151 339.511 602.165 361.135 586.156 354.934C560.559 345.018 546.407 295.979 542.254 267.523Z" fill="#DC26B4"/>
<path fill-rule="evenodd" clip-rule="evenodd" d="M525.187 373.979C525.187 373.979 573.141 365.523 595.735 361.539C598.959 360.971 597.53 356.417 596.649 354.147C586.485 327.952 560.331 302.394 553.518 263.756L532.605 264.149C520.553 294.221 520.616 328.619 525.187 373.979Z" fill="#DDE3E9"/>
<path fill-rule="evenodd" clip-rule="evenodd" d="M531.524 264.339L531.292 264.38C490.615 300.591 470.728 349.112 471.633 409.942L486.931 410.234C494.712 397.081 503.503 376.248 513.305 347.737C511.652 364.162 511.26 380.778 512.931 396.13L576.435 384.933C583.244 351.657 539.349 262.959 539.349 262.959L534.965 263.732L531.524 264.339Z" fill="#FF33D2"/>
</g>
<defs>
<clipPath id="clip0">
<rect width="1358" height="592" fill="white"/>
</clipPath>
</defs>
</svg>
